/* XPM */
static char * siv_err_xpm[] = {
"64 64 421 2",
"  	c None",
". 	c #000000",
"+ 	c #BF78F2",
"@ 	c #C27EF3",
"# 	c #C27FF3",
"$ 	c #BD73F2",
"% 	c #BD75F2",
"& 	c #BE76F2",
"* 	c #BF77F2",
"= 	c #BF79F2",
"- 	c #C07AF3",
"; 	c #C17CF3",
"> 	c #C17DF3",
", 	c #C380F3",
"' 	c #C381F3",
") 	c #C483F3",
"! 	c #C584F3",
"~ 	c #C585F4",
"{ 	c #C687F4",
"] 	c #C788F4",
"^ 	c #BB6FF2",
"/ 	c #BC71F2",
"( 	c #BC72F2",
"_ 	c #BD74F2",
": 	c #BE75F2",
"< 	c #C079F2",
"[ 	c #C07BF3",
"} 	c #C27DF3",
"| 	c #C482F3",
"1 	c #C686F4",
"2 	c #C789F4",
"3 	c #C78AF4",
"4 	c #C88CF4",
"5 	c #C98DF4",
"6 	c #C98EF4",
"7 	c #CA90F4",
"8 	c #BA6FF1",
"9 	c #BB70F2",
"0 	c #BC73F2",
"a 	c #BE77F2",
"b 	c #C07AF2",
"c 	c #C585F3",
"d 	c #C688F4",
"e 	c #C88BF4",
"f 	c #CA8FF4",
"g 	c #CB92F5",
"h 	c #CC93F5",
"i 	c #C17BF3",
"j 	c #C98CF4",
"k 	c #CB91F5",
"l 	c #CD95F5",
"m 	c #CD96F5",
"n 	c #CE98F5",
"o 	c #CF99F5",
"p 	c #BB71F2",
"q 	c #C382F3",
"r 	c #C586F4",
"s 	c #CC94F5",
"t 	c #CD97F5",
"u 	c #CF9BF5",
"v 	c #D09CF6",
"w 	c #D19EF6",
"x 	c #C88AF4",
"y 	c #CE97F5",
"z 	c #CF9AF5",
"A 	c #D09BF5",
"B 	c #D09DF6",
"C 	c #D2A0F6",
"D 	c #C484F3",
"E 	c #CC95F5",
"F 	c #CE99F5",
"G 	c #D09CF5",
"H 	c #D19FF6",
"I 	c #D2A1F6",
"J 	c #D3A3F6",
"K 	c #D4A4F6",
"L 	c #D3A2F6",
"M 	c #D4A5F6",
"N 	c #D5A6F6",
"O 	c #D5A7F7",
"P 	c #D6A9F7",
"Q 	c #CA8EF4",
"R 	c #D3A4F6",
"S 	c #D5A8F7",
"T 	c #D7ABF7",
"U 	c #D7ACF7",
"V 	c #D5A7F6",
"W 	c #D6A8F7",
"X 	c #D6AAF7",
"Y 	c #D8ACF7",
"Z 	c #D8AEF7",
"` 	c #D19DF6",
" .	c #D7AAF7",
"..	c #D8ADF7",
"+.	c #D9AEF7",
"@.	c #D9B0F7",
"#.	c #DAB1F7",
"$.	c #CB93F5",
"%.	c #D9AFF7",
"&.	c #DAB2F7",
"*.	c #DBB3F8",
"=.	c #DBB4F8",
"-.	c #DCB5F8",
";.	c #DCB6F8",
">.	c #DDB8F8",
",.	c #C383F2",
"'.	c #C387F2",
").	c #C387F3",
"!.	c #C588F3",
"~.	c #C688F3",
"{.	c #C994F4",
"].	c #C2A0F2",
"^.	c #BFA9F1",
"/.	c #C79EF3",
"(.	c #CD98F4",
"_.	c #D4A6F6",
":.	c #DCB7F8",
"<.	c #DEB9F8",
"[.	c #DEBBF8",
"}.	c #C188F2",
"|.	c #B5A3EF",
"1.	c #AEB3ED",
"2.	c #B0B1EE",
"3.	c #B7A5F0",
"4.	c #C096F2",
"5.	c #C78CF3",
"6.	c #CA92F4",
"7.	c #BEA7F1",
"8.	c #A3D0EA",
"9.	c #9CDAE8",
"0.	c #AEC2ED",
"a.	c #CA9EF3",
"b.	c #DDB7F8",
"c.	c #DEBAF8",
"d.	c #DFBBF8",
"e.	c #DFBDF8",
"f.	c #ADB4ED",
"g.	c #9DD7E9",
"h.	c #9BDBE8",
"i.	c #A4CAEA",
"j.	c #AFB7ED",
"k.	c #A9C3EC",
"l.	c #B5AFEF",
"m.	c #C595F3",
"n.	c #CB94F4",
"o.	c #B7B3EF",
"p.	c #9CDBE8",
"q.	c #99E0E8",
"r.	c #A4D1EA",
"s.	c #C7A5F3",
"t.	c #D29FF6",
"u.	c #DAB0F7",
"v.	c #DBB5F8",
"w.	c #DDB9F8",
"x.	c #DFBCF8",
"y.	c #E0BEF9",
"z.	c #BD95F1",
"A.	c #9FD3E9",
"B.	c #9DD6E9",
"C.	c #BAA3F0",
"D.	c #C295F2",
"E.	c #A5CAEB",
"F.	c #9ADCE8",
"G.	c #B2B6EE",
"H.	c #C797F4",
"I.	c #C799F3",
"J.	c #C999F4",
"K.	c #CB98F4",
"L.	c #C3A5F2",
"M.	c #A9CAEC",
"N.	c #A1D5E9",
"O.	c #B1C1ED",
"P.	c #CBA2F4",
"Q.	c #E0BDF8",
"R.	c #E0BFF9",
"S.	c #E1C0F9",
"T.	c #BE96F1",
"U.	c #A0D1E9",
"V.	c #9DD8E9",
"W.	c #B9A7F0",
"X.	c #C593F3",
"Y.	c #ABC0EC",
"Z.	c #99DEE8",
"`.	c #A7C9EB",
" +	c #BAADF0",
".+	c #ADC2ED",
"++	c #AAC6EC",
"@+	c #B7B7EF",
"#+	c #C9A0F3",
"$+	c #C9A2F3",
"%+	c #C7A6F3",
"&+	c #CDA1F5",
"*+	c #D09FF5",
"=+	c #E1BFF9",
"-+	c #E1C1F9",
";+	c #E2C2F9",
">+	c #E3C4F9",
",+	c #C38AF3",
"'+	c #BF93F2",
")+	c #C292F2",
"!+	c #B0B5ED",
"~+	c #9BDCE8",
"{+	c #99DFE8",
"]+	c #A2D0EA",
"^+	c #BAAAF0",
"/+	c #BFA3F1",
"(+	c #B0BBEE",
"_+	c #BCAAF1",
":+	c #C89CF3",
"<+	c #BDACF1",
"[+	c #A2D3EA",
"}+	c #AEC4ED",
"|+	c #CBA1F4",
"1+	c #E2C3F9",
"2+	c #E3C5F9",
"3+	c #B1B0EE",
"4+	c #A2CDEA",
"5+	c #B3B0EE",
"6+	c #C197F2",
"7+	c #ADBBED",
"8+	c #A2D1EA",
"9+	c #BFA5F1",
"0+	c #CA96F4",
"a+	c #CC96F4",
"b+	c #CD97F4",
"c+	c #C2A8F2",
"d+	c #A1D4EA",
"e+	c #A2D4EA",
"f+	c #C8A8F3",
"g+	c #D0A2F5",
"h+	c #C9A9F4",
"i+	c #CBAAF4",
"j+	c #D0A7F5",
"k+	c #D3A5F5",
"l+	c #E4C6F9",
"m+	c #E4C7F9",
"n+	c #C290F2",
"o+	c #A7C4EB",
"p+	c #A2CEEA",
"q+	c #C298F2",
"r+	c #C498F2",
"s+	c #A8C7EC",
"t+	c #9ADEE8",
"u+	c #B2BBEE",
"v+	c #CA9FF3",
"w+	c #9ADDE8",
"x+	c #ABCAEC",
"y+	c #CCA6F4",
"z+	c #CCA9F4",
"A+	c #B3C4EE",
"B+	c #A8D0EB",
"C+	c #ADCCEC",
"D+	c #C2B8F2",
"E+	c #D4AAF6",
"F+	c #E0BEF8",
"G+	c #E4C8F9",
"H+	c #E5C9F9",
"I+	c #C58DF3",
"J+	c #B5ADEF",
"K+	c #A1D1EA",
"L+	c #C29BF2",
"M+	c #C894F4",
"N+	c #ADBFED",
"O+	c #B0BEED",
"P+	c #CD99F4",
"Q+	c #CC9DF4",
"R+	c #B5BBEE",
"S+	c #9CDCE8",
"T+	c #A0D6E9",
"U+	c #C2B2F2",
"V+	c #D2A2F5",
"W+	c #D2A3F5",
"X+	c #CAAEF3",
"Y+	c #A9D0EB",
"Z+	c #A4D5EA",
"`+	c #CBB3F4",
" @	c #D7ADF6",
".@	c #D7AFF6",
"+@	c #D8B0F6",
"@@	c #E5C8F9",
"#@	c #E5C9FA",
"$@	c #E6CBFA",
"%@	c #C78FF3",
"&@	c #BAA9F0",
"*@	c #ABC2EC",
"=@	c #B5B2EF",
"-@	c #B1BBEE",
";@	c #9ED7E9",
">@	c #A2D2EA",
",@	c #BFACF1",
"'@	c #CE9AF4",
")@	c #BDB2F0",
"!@	c #9FD8E9",
"~@	c #BABBF0",
"{@	c #D0A4F5",
"]@	c #C7B3F2",
"^@	c #9EDBE9",
"/@	c #CBB6F3",
"(@	c #D4B0F6",
"_@	c #BCC4F0",
":@	c #AFCFED",
"<@	c #C0C3F1",
"[@	c #D7B5F7",
"}@	c #E2C1F9",
"|@	c #E3C6F9",
"1@	c #E5CAFA",
"2@	c #E7CDFA",
"3@	c #C991F3",
"4@	c #C49BF3",
"5@	c #B3B8EE",
"6@	c #AFC0ED",
"7@	c #B3BCEE",
"8@	c #C0AAF1",
"9@	c #CD9BF4",
"0@	c #CAA2F3",
"a@	c #A8CDEB",
"b@	c #9BDDE8",
"c@	c #B3C3EE",
"d@	c #CFA6F5",
"e@	c #D3A6F5",
"f@	c #CEADF4",
"g@	c #AFCBED",
"h@	c #ACD0EC",
"i@	c #D1B3F5",
"j@	c #CABAF3",
"k@	c #A1D9EA",
"l@	c #A4D8EA",
"m@	c #CEBDF4",
"n@	c #E6CAFA",
"o@	c #E6CCFA",
"p@	c #CB99F4",
"q@	c #CB9BF4",
"r@	c #CE9BF4",
"s@	c #C5ABF3",
"t@	c #A0D7E9",
"u@	c #A6D1EB",
"v@	c #C9ACF3",
"w@	c #D0ABF5",
"x@	c #B2C9EE",
"y@	c #9CDDE8",
"z@	c #A1D9E9",
"A@	c #C5BDF2",
"B@	c #D7B0F6",
"C@	c #C9BCF3",
"D@	c #A1DAE9",
"E@	c #A3D9EA",
"F@	c #CCC0F4",
"G@	c #E7CCFA",
"H@	c #E7CEFA",
"I@	c #E8CFFA",
"J@	c #CCA4F4",
"K@	c #A8CEEB",
"L@	c #A9CFEB",
"M@	c #C9AFF3",
"N@	c #D3A7F5",
"O@	c #D4A8F6",
"P@	c #BFBDF1",
"Q@	c #9DDCE9",
"R@	c #BEC2F0",
"S@	c #D6B1F6",
"T@	c #D3B7F6",
"U@	c #ACD3EC",
"V@	c #ADD3EC",
"W@	c #D4BDF6",
"X@	c #D1A1F5",
"Y@	c #C6B0F2",
"Z@	c #B4C4EE",
"`@	c #AECAED",
" #	c #B7C3EF",
".#	c #CFAEF5",
"+#	c #D4ABF6",
"@#	c #B5C7EE",
"##	c #B7C8EF",
"$#	c #D7B3F6",
"%#	c #D6B8F6",
"&#	c #B1D0ED",
"*#	c #A0DBE9",
"=#	c #C8C4F3",
"-#	c #DCBCF7",
";#	c #E8CEFA",
">#	c #E8D0FA",
",#	c #E9D1FA",
"'#	c #D3A4F5",
")#	c #D1A8F5",
"!#	c #CFABF5",
"~#	c #D5ABF6",
"{#	c #D5ADF6",
"]#	c #BAC5EF",
"^#	c #9ADFE8",
"/#	c #C5BFF2",
"(#	c #CAC2F3",
"_#	c #AAD5EC",
":#	c #C3C8F1",
"<#	c #E9D2FA",
"[#	c #D2B4F5",
"}#	c #AAD2EC",
"|#	c #B3CEEE",
"1#	c #D0BBF5",
"2#	c #D2BBF5",
"3#	c #CDC0F4",
"4#	c #B1D1ED",
"5#	c #C0CAF1",
"6#	c #D9B1F6",
"7#	c #CFB9F4",
"8#	c #BDC7F0",
"9#	c #B4CEEE",
"0#	c #B7CDEF",
"a#	c #BDCAF0",
"b#	c #C2C8F1",
"c#	c #CCC3F4",
"d#	c #DBBDF7",
"e#	c #EAD2FA",
"f#	c #DAB4F7",
"g#	c #D9B6F7",
"h#	c #D8B9F7",
"i#	c #D7BBF6",
"j#	c #D9BBF6",
"k#	c #DBBCF7",
"l#	c #DEBCF7",
"m#	c #EAD3FA",
"n#	c #E9D0FA",
"                                                                                                                                ",
"                                                                                                                                ",
"                                                                                                                                ",
"                                                                                                                                ",
"                                                                                                                                ",
"                                                                                                                                ",
"                                                                                                                                ",
"                                                                                                                                ",
"                                                                                                                                ",
"                                                                                                                                ",
"                                                                                                                                ",
"                                                                                                                                ",
"                                                                                                                                ",
"                                                                                                                                ",
"                                                                                                                                ",
"                                                                                                                                ",
"                                                                                                                                ",
"                                                                                                                                ",
"                                                                                                                                ",
"                                                                                                                                ",
"                                                                                                                                ",
"                                            .     . . .   . . . .                                                               ",
"                                        . . . . . . + . . . @ # . . . . . .                                                     ",
"                                . . . . . $ % & * = - ; > @ , ' ) ! ~ { ] . . . . .                                             ",
"                            . . . ^ / ( _ : & + < [ ; } # , | ) ! 1 { 2 3 4 5 6 7 . .                                           ",
"                          . . 8 9 / 0 _ : a + b [ ; @ # ' | ) c 1 d 2 e 4 5 f 7 g h . . . .                                     ",
"                      . . . ^ 9 ( $ _ & * = - i > @ , ' | ! ~ { ] 3 e j 6 f k g h l m n o . . .                                 ",
"                    . . 8 ^ p ( $ % & + = - ; > # , q ) ! r { 2 3 e 5 6 7 k g s l t n o u v w .                                 ",
"                  . . 8 9 / ( _ : a + < [ ; @ # ' | ) c 1 d 2 x 4 5 f 7 k h s m y n z A B w C . . .                             ",
"                . . ^ 9 / $ _ & * + - i > @ , ' | D c { d 2 e 4 6 f 7 g h E m y F z G B H C I J K . . .                         ",
"                . ^ 9 ( $ % & * = - ; > # , ' ) ! r { ] 3 e 5 6 f k g s l m n o u v w H C L J M N O P . .                       ",
"                . / ( _ : & + < [ ; @ # , | ) c 1 { 2 x 4 5 Q 7 k h s l y n z A B w H I L R M N S P T U .                       ",
"            . . . 0 _ : a + b [ > @ # ' | D c 1 d 2 e 4 5 f 7 g h E m y F z G B w C I J K M V W X T Y Z . .                     ",
"            . ( $ % & * = - ; > @ , ' ) ! ~ { ] 3 e j 6 f k g s l m n o u v ` H C L J K N O P  .T ..+.@.#.. .                   ",
"            . _ : & + < [ ; } # , q ) ! r { 2 3 e 5 6 7 k $.s l t n z u v w H I L J M N S P  .U ..%.@.&.*.=.. .                 ",
"            . : a + b [ ; @ # ' | ) c 1 d 2 x 4 5 f 7 g h s m y F z A B w C I L K M V W P T Y Z %.#.&.*.-.;.>.. .               ",
"            . * = - i > @ , ' ,.'.).!.~.2 e j 6 f k {.].^./.(.F z G B H C I J K _.V W X T ..Z @.#.&.=.-.:.>.<.[..               ",
"          . . = - ; > # , ' }.|.1.2.3.4.5.5 6 7 k 6.7.8.9.0.a.u v w H C L J M N S P  .U ..%.@.#.*.=.;.b.>.c.d.e..               ",
"            . [ ; @ # , | }.f.g.h.i.j.k.l.m.7 k h n.o.p.q.r.s.B w t.I L K M V W P T Y Z %.u.&.*.v.;.b.w.c.x.e.y..               ",
"            . > @ # ' | D z.A.q.B.C.D.E.F.G.H.I.J.K.L.M.N.O.P.w C I J K _.V W X T ..Z %.#.&.=.-.;.>.<.[.x.Q.R.S.. .             ",
"            . @ , ' ) ! r T.U.q.V.W.X.Y.Z.`. +.+++@+#+$+%+&+*+C L J M N O P  .U ..+.@.#.*.=.-.b.>.c.d.x.y.=+-+;+>+.             ",
"            . , | ) c ,+'+)+!+~+{+]+^+/+(+_+:+<+[+~+}+|+w H I L R M N S P T U ..%.@.&.*.=.;.b.w.c.d.e.y.S.-+1+>+2+.             ",
"            . . D c ,+3+4+5+6+7+F.{+8+9+0+a+b+c+d+q.e+f+g+h+i+j+k+V W X T Y Z %.#.&.*.-.;.>.<.[.x.Q.R.S.;+1+>+l+m+.             ",
"              . ~ { n+o+{+p+q+r+s+{+t+u+a+n v+}+w+{+x+y+z+A+B+C+D+E+ .T ..Z @.#.&.=.-.:.>.c.[.x.F+R.-+;+1+2+l+G+H+.             ",
"              . . 2 I+J+h.K+L+M+N+{+t+O+P+Q+R+S+{+T+U+V+W+X+Y+{+Z+`+U  @.@+@#.*.=.;.b.w.c.d.e.y.S.-+;+>+2+m+@@#@$@.             ",
"                . . 4 %@&@*@=@-@;@Z.>@,@'@)@!@q.S+~@{@K k+]@Z+q.^@/@(@_@:@<@[@-.;.>.<.c.x.Q.R.S.}@1+>+|@m+@@1@$@2@.             ",
"                  . . f 3@4@_+5@6@7@8@9@0@a@{+b@c@d@K e@f@g@t+{+h@i@j@k@q.l@m@:.>.<.[.x.F+R.S.;+1+2+l+m+H+n@o@2@. .             ",
"                    . k g n.a+p@q@9@r@v s@t@{+u@v@k+N w@x@y@q.z@A@B@C@D@q.E@F@>.c.d.e.y.=+-+;+>+2+l+@@#@$@G@H@I@.               ",
"                    . . s m y n z A B w J@K@{+L@M@N@O@P@S+q.Q@R@S@&.T@U@{+V@W@c.x.e.y.S.-+1+>+2+m+@@1@$@2@H@I@. .               ",
"                      . . y F z G B w C X@Y@Z@`@ #.#+#@#{+t+##$#&.=.%#&#*#=#-#x.Q.R.S.;+1+>+l+m+H+n@o@2@;#>#,#.                 ",
"                        . . . v ` H C L J '#)#!#.#~#{#]#^#Q@/#*.=.-.(#_#:#-#x.y.=+-+;+1+2+l+G+H+$@o@2@I@>#<#. .                 ",
"                            . . H I L J M N S P T U ..[#}#Q@|#1#2#3#4#5#-#e.y.S.-+;+>+2+m+@@1@$@G@H@I@,#. . .                   ",
"                              . I L K M V W X T Y Z %.6#7#8#9#0#a#b#c#d#Q.R.S.}@1+>+l+m+H+n@$@2@;#>#,#e#.                       ",
"                              . . . . V P X T ..Z @.#.&.f#g#h#i#j#k#l#F+R.-+;+1+2+l+G+H+n@o@2@I@>#,#m#. .                       ",
"                                    . . . U ..%.@.#.*.=.;.b.>.c.d.e.y.S.-+;+>+2+m+@@#@$@G@H@I@n#<#m#. .                         ",
"                                        . . . u.&.*.-.;.b.<.c.x.e.R.S.-+1+>+|@m+@@1@$@2@H@I@. . . . .                           ",
"                                            . . . . ;.>.<.[.x.F+R.S.;+1+2+l+m+H+n@o@2@. . . .                                   ",
"                                                  . . . . . . =+-+;+>+2+l+@@. . . . . .   .                                     ",
"                                                            . . . . . . . . .   . .                                             ",
"                                                                                                                                ",
"                                                                                                                                ",
"                                                                                                                                ",
"                                                                                                                                ",
"                                                                                                                                "};
