/* XPM */
static char * siv_wm_xpm[] = {
"64 64 422 2",
"  	c None",
". 	c #BC71F2",
"+ 	c #BE75F2",
"@ 	c #BE77F2",
"# 	c #BF78F2",
"$ 	c #C07BF3",
"% 	c #C17CF3",
"& 	c #C27EF3",
"* 	c #C27FF3",
"= 	c #BB70F2",
"- 	c #BC73F2",
"; 	c #BD74F2",
"> 	c #BE76F2",
", 	c #C07AF2",
"' 	c #C17DF3",
") 	c #C381F3",
"! 	c #C482F3",
"~ 	c #C484F3",
"{ 	c #C585F3",
"] 	c #C686F4",
"^ 	c #C688F4",
"/ 	c #BA6FF1",
"( 	c #BB6FF2",
"_ 	c #BC72F2",
": 	c #BD73F2",
"< 	c #BD75F2",
"[ 	c #BF77F2",
"} 	c #BF79F2",
"| 	c #C07AF3",
"1 	c #C380F3",
"2 	c #C483F3",
"3 	c #C584F3",
"4 	c #C585F4",
"5 	c #C687F4",
"6 	c #C788F4",
"7 	c #C78AF4",
"8 	c #C88BF4",
"9 	c #C98DF4",
"0 	c #C98EF4",
"a 	c #CA8FF4",
"b 	c #C079F2",
"c 	c #C27DF3",
"d 	c #C789F4",
"e 	c #C88CF4",
"f 	c #CA90F4",
"g 	c #CB91F5",
"h 	c #CB93F5",
"i 	c #CB92F5",
"j 	c #CC93F5",
"k 	c #CC94F5",
"l 	c #CD96F5",
"m 	c #CE97F5",
"n 	c #CE99F5",
"o 	c #C17BF3",
"p 	c #C98CF4",
"q 	c #CD95F5",
"r 	c #CE98F5",
"s 	c #CF99F5",
"t 	c #CF9AF5",
"u 	c #D09CF6",
"v 	c #D19DF6",
"w 	c #BB71F2",
"x 	c #C382F3",
"y 	c #C586F4",
"z 	c #CD97F5",
"A 	c #CF9BF5",
"B 	c #D19EF6",
"C 	c #D19FF6",
"D 	c #C88AF4",
"E 	c #D09BF5",
"F 	c #D09DF6",
"G 	c #D2A0F6",
"H 	c #D2A1F6",
"I 	c #D3A2F6",
"J 	c #D4A4F6",
"K 	c #CC95F5",
"L 	c #D09CF5",
"M 	c #D3A3F6",
"N 	c #D4A6F6",
"O 	c #D5A7F6",
"P 	c #D6A8F7",
"Q 	c #D4A5F6",
"R 	c #D5A6F6",
"S 	c #D5A7F7",
"T 	c #D6A9F7",
"U 	c #D7AAF7",
"V 	c #D7ACF7",
"W 	c #CA8EF4",
"X 	c #D3A4F6",
"Y 	c #D5A8F7",
"Z 	c #D7ABF7",
"` 	c #D8ADF7",
" .	c #D6AAF7",
"..	c #D8ACF7",
"+.	c #D8AEF7",
"@.	c #D9AFF7",
"#.	c #DAB1F7",
"$.	c #D9AEF7",
"%.	c #D9B0F7",
"&.	c #DBB3F8",
"*.	c #DBB4F8",
"=.	c #DAB2F7",
"-.	c #DCB6F8",
";.	c #DDB7F8",
">.	c #DCB5F8",
",.	c #DDB8F8",
"'.	c #DEB9F8",
").	c #DEBAF8",
"!.	c #C383F2",
"~.	c #C387F2",
"{.	c #C387F3",
"].	c #C588F3",
"^.	c #C688F3",
"/.	c #C994F4",
"(.	c #C2A0F2",
"_.	c #BFA9F1",
":.	c #C79EF3",
"<.	c #CD98F4",
"[.	c #DCB7F8",
"}.	c #DEBBF8",
"|.	c #DFBCF8",
"1.	c #C188F2",
"2.	c #B5A3EF",
"3.	c #AEB3ED",
"4.	c #B0B1EE",
"5.	c #B7A5F0",
"6.	c #C096F2",
"7.	c #C78CF3",
"8.	c #CA92F4",
"9.	c #BEA7F1",
"0.	c #A3D0EA",
"a.	c #9CDAE8",
"b.	c #AEC2ED",
"c.	c #CA9EF3",
"d.	c #DFBBF8",
"e.	c #DFBDF8",
"f.	c #E0BEF9",
"g.	c #ADB4ED",
"h.	c #9DD7E9",
"i.	c #9BDBE8",
"j.	c #A4CAEA",
"k.	c #AFB7ED",
"l.	c #A9C3EC",
"m.	c #B5AFEF",
"n.	c #C595F3",
"o.	c #CB94F4",
"p.	c #B7B3EF",
"q.	c #9CDBE8",
"r.	c #99E0E8",
"s.	c #A4D1EA",
"t.	c #C7A5F3",
"u.	c #D29FF6",
"v.	c #DAB0F7",
"w.	c #DBB5F8",
"x.	c #DDB9F8",
"y.	c #E1C0F9",
"z.	c #BD95F1",
"A.	c #9FD3E9",
"B.	c #9DD6E9",
"C.	c #BAA3F0",
"D.	c #C295F2",
"E.	c #A5CAEB",
"F.	c #9ADCE8",
"G.	c #B2B6EE",
"H.	c #C797F4",
"I.	c #C799F3",
"J.	c #C999F4",
"K.	c #CB98F4",
"L.	c #C3A5F2",
"M.	c #A9CAEC",
"N.	c #A1D5E9",
"O.	c #B1C1ED",
"P.	c #CBA2F4",
"Q.	c #E0BDF8",
"R.	c #E0BFF9",
"S.	c #E2C2F9",
"T.	c #E2C3F9",
"U.	c #BE96F1",
"V.	c #A0D1E9",
"W.	c #9DD8E9",
"X.	c #B9A7F0",
"Y.	c #C593F3",
"Z.	c #ABC0EC",
"`.	c #99DEE8",
" +	c #A7C9EB",
".+	c #BAADF0",
"++	c #ADC2ED",
"@+	c #AAC6EC",
"#+	c #B7B7EF",
"$+	c #C9A0F3",
"%+	c #C9A2F3",
"&+	c #C7A6F3",
"*+	c #CDA1F5",
"=+	c #D09FF5",
"-+	c #E1BFF9",
";+	c #E1C1F9",
">+	c #E3C4F9",
",+	c #E3C5F9",
"'+	c #C38AF3",
")+	c #BF93F2",
"!+	c #C292F2",
"~+	c #B0B5ED",
"{+	c #9BDCE8",
"]+	c #99DFE8",
"^+	c #A2D0EA",
"/+	c #BAAAF0",
"(+	c #BFA3F1",
"_+	c #B0BBEE",
":+	c #BCAAF1",
"<+	c #C89CF3",
"[+	c #BDACF1",
"}+	c #A2D3EA",
"|+	c #AEC4ED",
"1+	c #CBA1F4",
"2+	c #E4C7F9",
"3+	c #B1B0EE",
"4+	c #A2CDEA",
"5+	c #B3B0EE",
"6+	c #C197F2",
"7+	c #ADBBED",
"8+	c #A2D1EA",
"9+	c #BFA5F1",
"0+	c #CA96F4",
"a+	c #CC96F4",
"b+	c #CD97F4",
"c+	c #C2A8F2",
"d+	c #A1D4EA",
"e+	c #A2D4EA",
"f+	c #C8A8F3",
"g+	c #D0A2F5",
"h+	c #C9A9F4",
"i+	c #CBAAF4",
"j+	c #D0A7F5",
"k+	c #D3A5F5",
"l+	c #E4C6F9",
"m+	c #E5C9F9",
"n+	c #C290F2",
"o+	c #A7C4EB",
"p+	c #A2CEEA",
"q+	c #C298F2",
"r+	c #C498F2",
"s+	c #A8C7EC",
"t+	c #9ADEE8",
"u+	c #B2BBEE",
"v+	c #CA9FF3",
"w+	c #9ADDE8",
"x+	c #ABCAEC",
"y+	c #CCA6F4",
"z+	c #CCA9F4",
"A+	c #B3C4EE",
"B+	c #A8D0EB",
"C+	c #ADCCEC",
"D+	c #C2B8F2",
"E+	c #D4AAF6",
"F+	c #E0BEF8",
"G+	c #E4C8F9",
"H+	c #E6CAFA",
"I+	c #C58DF3",
"J+	c #B5ADEF",
"K+	c #A1D1EA",
"L+	c #C29BF2",
"M+	c #C894F4",
"N+	c #ADBFED",
"O+	c #B0BEED",
"P+	c #CD99F4",
"Q+	c #CC9DF4",
"R+	c #B5BBEE",
"S+	c #9CDCE8",
"T+	c #A0D6E9",
"U+	c #C2B2F2",
"V+	c #D2A2F5",
"W+	c #D2A3F5",
"X+	c #CAAEF3",
"Y+	c #A9D0EB",
"Z+	c #A4D5EA",
"`+	c #CBB3F4",
" @	c #D7ADF6",
".@	c #D7AFF6",
"+@	c #D8B0F6",
"@@	c #E5C8F9",
"#@	c #E5C9FA",
"$@	c #E6CBFA",
"%@	c #E7CCFA",
"&@	c #C78FF3",
"*@	c #BAA9F0",
"=@	c #ABC2EC",
"-@	c #B5B2EF",
";@	c #B1BBEE",
">@	c #9ED7E9",
",@	c #A2D2EA",
"'@	c #BFACF1",
")@	c #CE9AF4",
"!@	c #BDB2F0",
"~@	c #9FD8E9",
"{@	c #BABBF0",
"]@	c #D0A4F5",
"^@	c #C7B3F2",
"/@	c #9EDBE9",
"(@	c #CBB6F3",
"_@	c #D4B0F6",
":@	c #BCC4F0",
"<@	c #AFCFED",
"[@	c #C0C3F1",
"}@	c #D7B5F7",
"|@	c #E2C1F9",
"1@	c #E3C6F9",
"2@	c #E5CAFA",
"3@	c #E7CDFA",
"4@	c #E7CEFA",
"5@	c #C991F3",
"6@	c #C49BF3",
"7@	c #B3B8EE",
"8@	c #AFC0ED",
"9@	c #B3BCEE",
"0@	c #C0AAF1",
"a@	c #CD9BF4",
"b@	c #CAA2F3",
"c@	c #A8CDEB",
"d@	c #9BDDE8",
"e@	c #B3C3EE",
"f@	c #CFA6F5",
"g@	c #D3A6F5",
"h@	c #CEADF4",
"i@	c #AFCBED",
"j@	c #ACD0EC",
"k@	c #D1B3F5",
"l@	c #CABAF3",
"m@	c #A1D9EA",
"n@	c #A4D8EA",
"o@	c #CEBDF4",
"p@	c #E6CCFA",
"q@	c #E8CEFA",
"r@	c #E8D0FA",
"s@	c #CB99F4",
"t@	c #CB9BF4",
"u@	c #CE9BF4",
"v@	c #C5ABF3",
"w@	c #A0D7E9",
"x@	c #A6D1EB",
"y@	c #C9ACF3",
"z@	c #D0ABF5",
"A@	c #B2C9EE",
"B@	c #9CDDE8",
"C@	c #A1D9E9",
"D@	c #C5BDF2",
"E@	c #D7B0F6",
"F@	c #C9BCF3",
"G@	c #A1DAE9",
"H@	c #A3D9EA",
"I@	c #CCC0F4",
"J@	c #E8CFFA",
"K@	c #E9D0FA",
"L@	c #CCA4F4",
"M@	c #A8CEEB",
"N@	c #A9CFEB",
"O@	c #C9AFF3",
"P@	c #D3A7F5",
"Q@	c #D4A8F6",
"R@	c #BFBDF1",
"S@	c #9DDCE9",
"T@	c #BEC2F0",
"U@	c #D6B1F6",
"V@	c #D3B7F6",
"W@	c #ACD3EC",
"X@	c #ADD3EC",
"Y@	c #D4BDF6",
"Z@	c #E9D1FA",
"`@	c #E9D2FA",
" #	c #D1A1F5",
".#	c #C6B0F2",
"+#	c #B4C4EE",
"@#	c #AECAED",
"##	c #B7C3EF",
"$#	c #CFAEF5",
"%#	c #D4ABF6",
"&#	c #B5C7EE",
"*#	c #B7C8EF",
"=#	c #D7B3F6",
"-#	c #D6B8F6",
";#	c #B1D0ED",
">#	c #A0DBE9",
",#	c #C8C4F3",
"'#	c #DCBCF7",
")#	c #EAD3FA",
"!#	c #D3A4F5",
"~#	c #D1A8F5",
"{#	c #CFABF5",
"]#	c #D5ABF6",
"^#	c #D5ADF6",
"/#	c #BAC5EF",
"(#	c #9ADFE8",
"_#	c #C5BFF2",
":#	c #CAC2F3",
"<#	c #AAD5EC",
"[#	c #C3C8F1",
"}#	c #EAD4FA",
"|#	c #D2B4F5",
"1#	c #AAD2EC",
"2#	c #B3CEEE",
"3#	c #D0BBF5",
"4#	c #D2BBF5",
"5#	c #CDC0F4",
"6#	c #B1D1ED",
"7#	c #C0CAF1",
"8#	c #EAD5FA",
"9#	c #D9B1F6",
"0#	c #CFB9F4",
"a#	c #BDC7F0",
"b#	c #B4CEEE",
"c#	c #B7CDEF",
"d#	c #BDCAF0",
"e#	c #C2C8F1",
"f#	c #CCC3F4",
"g#	c #DBBDF7",
"h#	c #EAD2FA",
"i#	c #DAB4F7",
"j#	c #D9B6F7",
"k#	c #D8B9F7",
"l#	c #D7BBF6",
"m#	c #D9BBF6",
"n#	c #DBBCF7",
"o#	c #DEBCF7",
"                                                                                                                                ",
"                                                                                                                                ",
"                                                                                                                                ",
"                                                                                                                                ",
"                                                                                                                                ",
"                                                                                                                                ",
"                                                                                                                                ",
"                                                                                                                                ",
"                                                                                                                                ",
"                                                                                                                                ",
"                                                                                                                                ",
"                                                                                                                                ",
"                                                                                                                                ",
"                                                                                                                                ",
"                                                                                                                                ",
"                                                                                                                                ",
"                                                                                                                                ",
"                                                                                                                                ",
"                                                                                                                                ",
"                                                                                                                                ",
"                                                                                                                                ",
"                                            .     + @ #   $ % & *                                                               ",
"                                        = . - ; > @ # , $ ' & * ) ! ~ { ] ^                                                     ",
"                                / / ( = _ : < > [ } | % ' & 1 ) 2 3 4 5 6 7 8 9 0 a                                             ",
"                            / / / ( . _ ; + > # b $ % c * 1 ! 2 3 ] 5 d 7 e 9 0 f g h                                           ",
"                          / / / = . - ; + @ # , $ % & * ) ! 2 { ] ^ d 8 e 9 a f i j k l m n                                     ",
"                      / / / ( = _ : ; > [ } | o ' & 1 ) ! 3 4 5 6 7 8 p 0 a g i j q l r s t u v                                 ",
"                    / / / ( w _ : < > # } | % ' * 1 x 2 3 y 5 d 7 8 9 0 f g i k q z r s A u B C                                 ",
"                  / / / = . _ ; + @ # b $ % & * ) ! 2 { ] ^ d D e 9 a f g j k l m r t E F B G H I J                             ",
"                / / ( = . : ; > [ # | o ' & 1 ) ! ~ { 5 ^ d 8 e 0 a f i j K l m n t L F C G H M J N O P                         ",
"                / ( = _ : < > [ } | % ' * 1 ) 2 3 y 5 6 7 8 9 0 a g i k q l r s A u B C G I M Q R S T U V                       ",
"                ( . _ ; + > # b $ % & * 1 ! 2 { ] 5 d D e 9 W f g j k q m r t E F B C H I X Q R Y T Z V `                       ",
"            / = . - ; + @ # , $ ' & * ) ! ~ { ] ^ d 8 e 9 a f i j K l m n t L F B G H M J Q O P  .Z ..+.@.#.                    ",
"            = _ : < > [ } | % ' & 1 ) 2 3 4 5 6 7 8 p 0 a g i k q l r s A u v C G I M J R S T U Z ` $.%.#.&.*.                  ",
"            _ ; + > # b $ % c * 1 x 2 3 y 5 d 7 8 9 0 f g h k q z r t A u B C H I M Q R Y T U V ` @.%.=.&.*.-.;.                ",
"            ; + @ # , $ % & * ) ! 2 { ] ^ d D e 9 a f i j k l m n t E F B G H I J Q O P T Z ..+.@.#.=.&.>.-.,.'.).              ",
"            > [ } | o ' & 1 ) !.~.{.].^.d 8 p 0 a g /.(._.:.<.n t L F C G H M J N O P  .Z ` +.%.#.=.*.>.[.,.'.}.|.              ",
"          > # } | % ' * 1 ) 1.2.3.4.5.6.7.9 0 f g 8.9.0.a.b.c.A u B C G I M Q R Y T U V ` @.%.#.&.*.-.;.,.).d.e.f.              ",
"            b $ % & * 1 ! 1.g.h.i.j.k.l.m.n.f g j o.p.q.r.s.t.F B u.H I J Q O P T Z ..+.@.v.=.&.w.-.;.x.).|.e.f.y.              ",
"            $ ' & * ) ! ~ z.A.r.B.C.D.E.F.G.H.I.J.K.L.M.N.O.P.B G H M J N O P  .Z ` +.@.#.=.*.>.-.,.'.}.|.Q.R.y.S.T.            ",
"            ' & 1 ) 2 3 y U.V.r.W.X.Y.Z.`. +.+++@+#+$+%+&+*+=+G I M Q R S T U V ` $.%.#.&.*.>.;.,.).d.|.f.-+;+S.>+,+            ",
"            * 1 ! 2 { '+)+!+~+{+]+^+/+(+_+:+<+[+}+{+|+1+B C H I X Q R Y T Z V ` @.%.=.&.*.-.;.x.).d.e.f.y.;+T.>+,+2+            ",
"            ) ! ~ { '+3+4+5+6+7+F.]+8+9+0+a+b+c+d+r.e+f+g+h+i+j+k+O P  .Z ..+.@.#.=.&.>.-.,.'.}.|.Q.R.y.S.T.>+l+2+m+            ",
"              3 4 5 n+o+]+p+q+r+s+]+t+u+a+r v+|+w+]+x+y+z+A+B+C+D+E+U Z ` +.%.#.=.*.>.[.,.).}.|.F+R.;+S.T.,+l+G+m+H+            ",
"              y 5 d I+J+i.K+L+M+N+]+t+O+P+Q+R+S+]+T+U+V+W+X+Y+]+Z+`+V  @.@+@#.&.*.-.;.x.).d.e.f.y.;+S.>+,+2+@@#@$@%@            ",
"                d D e &@*@=@-@;@>@`.,@'@)@!@~@r.S+{@]@J k+^@Z+r./@(@_@:@<@[@}@>.-.,.'.).|.Q.R.y.|@T.>+1@2+@@2@$@3@4@            ",
"                  p 0 a 5@6@:+7@8@9@0@a@b@c@]+d@e@f@J g@h@i@t+]+j@k@l@m@r.n@o@[.,.'.}.|.F+R.y.S.T.,+l+2+m+H+p@3@q@r@            ",
"                    a g i o.a+s@t@a@u@u v@w@]+x@y@k+R z@A@B@r.C@D@E@F@G@r.H@I@,.).d.e.f.-+;+S.>+,+l+@@#@$@%@4@J@K@              ",
"                    g j k l m r t E F B L@M@]+N@O@P@Q@R@S+r.S@T@U@=.V@W@]+X@Y@).|.e.f.y.;+T.>+,+2+@@2@$@3@4@J@Z@`@              ",
"                      K l m n t L F B G  #.#+#@###$#%#&#]+t+*#=#=.*.-#;#>#,#'#|.Q.R.y.S.T.>+l+2+m+H+p@3@q@r@Z@)#                ",
"                        r s A u v C G I M !#~#{#$#]#^#/#(#S@_#&.*.>.:#<#[#'#|.f.-+;+S.T.,+l+G+m+$@p@3@J@r@`@)#}#                ",
"                            u B C H I M Q R Y T Z V ` |#1#S@2#3#4#5#6#7#'#e.f.y.;+S.>+,+2+@@2@$@%@4@J@Z@`@)#8#                  ",
"                              G H I J Q O P  .Z ..+.@.9#0#a#b#c#d#e#f#g#Q.R.y.|@T.>+l+2+m+H+$@3@q@r@Z@h#}#                      ",
"                              H M J N O T  .Z ` +.%.#.=.i#j#k#l#m#n#o#F+R.;+S.T.,+l+G+m+H+p@3@J@r@Z@)#}#8#                      ",
"                                    Y T U V ` @.%.#.&.*.-.;.,.).d.e.f.y.;+S.>+,+2+@@#@$@%@4@J@K@`@)#8#8#                        ",
"                                        ..+.@.v.=.&.>.-.;.'.).|.e.R.y.;+T.>+1@2+@@2@$@3@4@J@Z@`@}#8#8#                          ",
"                                            #.=.*.>.-.,.'.}.|.F+R.y.S.T.,+l+2+m+H+p@3@q@r@Z@)#                                  ",
"                                                  ;.,.).d.e.f.-+;+S.>+,+l+@@#@$@%@3@J@K@  )#                                    ",
"                                                            y.;+T.>+,+2+@@2@$@  4@J@                                            ",
"                                                                                                                                ",
"                                                                                                                                ",
"                                                                                                                                ",
"                                                                                                                                ",
"                                                                                                                                "};
