/* XPM */
static char * siv_dir_xpm[] = {
"64 64 410 2",
"  	c None",
". 	c #000000",
"+ 	c #BE76F2",
"@ 	c #BF78F2",
"# 	c #C07AF3",
"$ 	c #C17BF3",
"% 	c #C17DF3",
"& 	c #C27EF3",
"* 	c #C380F3",
"= 	c #C482F3",
"- 	c #C483F3",
"; 	c #C585F4",
"> 	c #C686F4",
", 	c #C788F4",
"' 	c #C78AF4",
") 	c #C88BF4",
"! 	c #C98DF4",
"~ 	c #BF77F2",
"{ 	c #BF79F2",
"] 	c #C07BF3",
"^ 	c #C17CF3",
"/ 	c #C27FF3",
"( 	c #C381F3",
"_ 	c #C584F3",
": 	c #C586F4",
"< 	c #C687F4",
"[ 	c #C789F4",
"} 	c #C98CF4",
"| 	c #C98EF4",
"1 	c #CA8FF4",
"2 	c #BE75F2",
"3 	c #BE77F2",
"4 	c #C484F3",
"5 	c #C88CF4",
"6 	c #CA90F5",
"7 	c #CB92F5",
"8 	c #BD74F2",
"9 	c #C079F2",
"0 	c #C688F4",
"a 	c #CA90F4",
"b 	c #CB91F5",
"c 	c #CC93F5",
"d 	c #CC95F5",
"e 	c #C27DF3",
"f 	c #C88AF4",
"g 	c #CC94F5",
"h 	c #CD95F5",
"i 	c #CE97F5",
"j 	c #BD73F2",
"k 	c #BD75F2",
"l 	c #C382F3",
"m 	c #CA8EF4",
"n 	c #CD96F5",
"o 	c #CE98F5",
"p 	c #CF9AF5",
"q 	c #BC72F2",
"r 	c #CF99F5",
"s 	c #CF9BF5",
"t 	c #D09CF6",
"u 	c #CD97F5",
"v 	c #D09BF6",
"w 	c #D09DF6",
"x 	c #D19FF6",
"y 	c #D2A0F6",
"z 	c #D3A2F6",
"A 	c #D4A3F6",
"B 	c #D4A5F6",
"C 	c #D5A7F7",
"D 	c #D6A8F7",
"E 	c #D7AAF7",
"F 	c #D7ACF7",
"G 	c #D8ADF7",
"H 	c #D9AFF7",
"I 	c #DAB0F7",
"J 	c #DAB2F8",
"K 	c #DBB4F8",
"L 	c #DCB5F8",
"M 	c #DDB7F8",
"N 	c #DDB8F8",
"O 	c #DEBAF8",
"P 	c #BC73F2",
"Q 	c #C37FF3",
"R 	c #D19EF6",
"S 	c #D2A1F6",
"T 	c #D3A3F6",
"U 	c #D4A4F6",
"V 	c #D5A6F7",
"W 	c #D5A8F7",
"X 	c #D6A9F7",
"Y 	c #D7ABF7",
"Z 	c #D8ACF7",
"` 	c #D9AEF7",
" .	c #D9B0F7",
"..	c #DAB1F8",
"+.	c #DBB3F8",
"@.	c #DCB4F8",
"#.	c #DCB6F8",
"$.	c #DEB9F8",
"%.	c #DFBBF8",
"&.	c #CB90F5",
"*.	c #CE99F5",
"=.	c #D19DF6",
"-.	c #DAB1F7",
";.	c #DDB9F8",
">.	c #DFBCF8",
",.	c #C585F3",
"'.	c #D3A1F6",
").	c #DFBDF9",
"!.	c #D5A6F6",
"~.	c #D8AEF7",
"{.	c #DBB2F8",
"].	c #DFBCF9",
"^.	c #E0BEF9",
"/.	c #D6AAF7",
"(.	c #E0BDF9",
"_.	c #E0BFF9",
":.	c #D29FF6",
"<.	c #E1C0F9",
"[.	c #C384F2",
"}.	c #C387F2",
"|.	c #C488F3",
"1.	c #C589F3",
"2.	c #C689F3",
"3.	c #CA96F4",
"4.	c #C3A3F2",
"5.	c #BFABF1",
"6.	c #C9A0F3",
"7.	c #CE9BF5",
"8.	c #E2C1F9",
"9.	c #C187F2",
"0.	c #B5A3EF",
"a.	c #AEB2ED",
"b.	c #B0B1EE",
"c.	c #B7A6F0",
"d.	c #C196F2",
"e.	c #C78DF3",
"f.	c #CB94F4",
"g.	c #BFA8F1",
"h.	c #A3D1EA",
"i.	c #9CDAE8",
"j.	c #AFC3ED",
"k.	c #CBA1F4",
"l.	c #E1BFF9",
"m.	c #E1C1F9",
"n.	c #E2C2F9",
"o.	c #C086F2",
"p.	c #ADB3ED",
"q.	c #9CD7E9",
"r.	c #9BDBE8",
"s.	c #A4CAEA",
"t.	c #AEB7ED",
"u.	c #A9C3EC",
"v.	c #B5AFEF",
"w.	c #C594F3",
"x.	c #CC95F4",
"y.	c #B7B3EF",
"z.	c #9CDBE8",
"A.	c #99E0E8",
"B.	c #A4D1EA",
"C.	c #C7A7F3",
"D.	c #E3C3F9",
"E.	c #BC92F1",
"F.	c #9FD3E9",
"G.	c #9DD6E9",
"H.	c #B9A1F0",
"I.	c #C294F2",
"J.	c #A5C9EB",
"K.	c #9ADCE8",
"L.	c #B2B6EE",
"M.	c #C796F4",
"N.	c #C698F3",
"O.	c #C998F4",
"P.	c #CB98F4",
"Q.	c #C3A5F2",
"R.	c #A9CAEC",
"S.	c #A1D5E9",
"T.	c #B1C1EE",
"U.	c #CCA3F4",
"V.	c #DEBBF8",
"W.	c #E2C3F9",
"X.	c #E3C4F9",
"Y.	c #BC93F1",
"Z.	c #A0D1E9",
"`.	c #9DD8E9",
" +	c #B8A4F0",
".+	c #C491F3",
"++	c #ABC0EC",
"@+	c #99DEE8",
"#+	c #A7C8EB",
"$+	c #B9ACF0",
"%+	c #ADC1ED",
"&+	c #AAC6EC",
"*+	c #B6B6EF",
"=+	c #C89FF3",
"-+	c #C9A1F3",
";+	c #C7A5F3",
">+	c #CCA1F5",
",+	c #D09FF5",
"'+	c #E3C5F9",
")+	c #C185F2",
"!+	c #BD90F1",
"~+	c #C08DF1",
"{+	c #AFB3ED",
"]+	c #A1D0EA",
"^+	c #B9A7F0",
"/+	c #BDA1F1",
"(+	c #B0BAED",
"_+	c #BCA8F1",
":+	c #C79AF3",
"<+	c #BDAAF1",
"[+	c #A1D3EA",
"}+	c #9BDCE8",
"|+	c #AEC3ED",
"1+	c #CAA0F3",
"2+	c #E4C6F9",
"3+	c #C085F2",
"4+	c #B0ADED",
"5+	c #A2CCEA",
"6+	c #B1ADEE",
"7+	c #C092F2",
"8+	c #ADB9ED",
"9+	c #99DFE8",
"0+	c #BEA2F1",
"a+	c #C992F4",
"b+	c #CA92F4",
"c+	c #C1A5F2",
"d+	c #A2D3EA",
"e+	c #C7A6F3",
"f+	c #CF9FF5",
"g+	c #C9A8F4",
"h+	c #CAA8F4",
"i+	c #CFA5F5",
"j+	c #D3A4F5",
"k+	c #E4C5F9",
"l+	c #E4C7F9",
"m+	c #BF89F1",
"n+	c #A6C1EB",
"o+	c #A2CDEA",
"p+	c #C093F2",
"q+	c #C193F2",
"r+	c #A7C5EB",
"s+	c #9ADEE8",
"t+	c #B0B9EE",
"u+	c #CA91F4",
"v+	c #C79BF3",
"w+	c #ADC2ED",
"x+	c #9ADDE8",
"y+	c #ABC8EC",
"z+	c #CAA3F4",
"A+	c #CAA5F4",
"B+	c #B3C2EE",
"C+	c #A8CFEB",
"D+	c #ACCBEC",
"E+	c #C1B7F1",
"F+	c #D3A7F6",
"G+	c #E5C8FA",
"H+	c #C285F2",
"I+	c #B3A9EE",
"J+	c #A1CFEA",
"K+	c #C095F2",
"L+	c #C58EF3",
"M+	c #ACBDEC",
"N+	c #AFBBED",
"O+	c #CA93F4",
"P+	c #C997F4",
"Q+	c #B4B9EE",
"R+	c #A0D6E9",
"S+	c #C1AEF2",
"T+	c #D0A0F5",
"U+	c #C9AAF3",
"V+	c #A8CEEB",
"W+	c #A4D4EA",
"X+	c #CAB1F4",
"Y+	c #D6AAF6",
"Z+	c #D6ADF6",
"`+	c #D7AEF6",
" @	c #E4C7FA",
".@	c #E5C9FA",
"+@	c #C388F3",
"@@	c #B7A3F0",
"#@	c #AABFEC",
"$@	c #B3AEEE",
"%@	c #AFB7ED",
"&@	c #9ED7E9",
"*@	c #A2D1EA",
"=@	c #BDA7F1",
"-@	c #CB93F4",
";@	c #BBAEF0",
">@	c #9FD7E9",
",@	c #B8B7F0",
"'@	c #CE9FF5",
")@	c #D1A0F5",
"!@	c #C6AFF2",
"~@	c #A3D4EA",
"{@	c #9DDBE9",
"]@	c #C9B3F3",
"^@	c #D2ADF6",
"/@	c #BBC2F0",
"(@	c #AECEED",
"_@	c #C0C2F1",
":@	c #D6B2F6",
"<@	c #E6CAFA",
"[@	c #C588F3",
"}@	c #B9A4F0",
"|@	c #B2B3EE",
"1@	c #ADBDED",
"2@	c #B1B7ED",
"3@	c #BEA4F1",
"4@	c #CA94F4",
"5@	c #A7CBEB",
"6@	c #B1C0ED",
"7@	c #CCA0F5",
"8@	c #D19FF5",
"9@	c #CBA7F4",
"0@	c #ADC9ED",
"a@	c #ABCEEC",
"b@	c #CFAFF5",
"c@	c #C8B7F3",
"d@	c #A1D9EA",
"e@	c #A4D7EA",
"f@	c #CCBAF4",
"g@	c #E6CBFA",
"h@	c #C68AF3",
"i@	c #C78CF3",
"j@	c #C78FF3",
"k@	c #C792F3",
"l@	c #C892F4",
"m@	c #C2A4F2",
"n@	c #9FD6E9",
"o@	c #A5CFEB",
"p@	c #D09DF5",
"q@	c #CDA4F4",
"r@	c #B0C6ED",
"s@	c #9CDCE8",
"t@	c #A0D8E9",
"u@	c #C3B9F2",
"v@	c #C7B8F3",
"w@	c #A0D9E9",
"x@	c #A2D8EA",
"y@	c #CABDF4",
"z@	c #E7CCFA",
"A@	c #C89CF3",
"B@	c #A7CCEB",
"C@	c #A8CCEB",
"D@	c #C6A7F3",
"E@	c #BCB8F0",
"F@	c #BDBEF0",
"G@	c #D4AAF6",
"H@	c #D1B2F5",
"I@	c #ABD1EC",
"J@	c #ACD1EC",
"K@	c #D2B8F6",
"L@	c #E7CDFA",
"M@	c #CD97F4",
"N@	c #C2A8F2",
"O@	c #B1BFED",
"P@	c #ADC7ED",
"Q@	c #B5BEEF",
"R@	c #CAA6F4",
"S@	c #D0A2F5",
"T@	c #B3C3EE",
"U@	c #B5C5EF",
"V@	c #D3ABF6",
"W@	c #D3B1F5",
"X@	c #B0CDED",
"Y@	c #A0DAE9",
"Z@	c #C6C0F3",
"`@	c #D9B5F7",
" #	c #E7CEFA",
".#	c #CE9AF4",
"+#	c #CD9EF5",
"@#	c #CBA2F4",
"##	c #CBA4F4",
"$#	c #D0A1F5",
"%#	c #D1A3F5",
"&#	c #B7BFEF",
"*#	c #C7BBF2",
"=#	c #A9D3EB",
"-#	c #C1C3F1",
";#	c #D8B4F7",
">#	c #E8CFFA",
",#	c #CDAAF4",
"'#	c #A9CFEB",
")#	c #B1CAEE",
"!#	c #CDB3F4",
"~#	c #CFB3F4",
"{#	c #C9B9F3",
"]#	c #B0CEED",
"^#	c #BEC5F0",
"/#	c #E8CEFA",
"(#	c #D3A5F5",
"_#	c #CBB0F4",
":#	c #BAC1F0",
"<#	c #B2C9EE",
"[#	c #B4C8EE",
"}#	c #BAC4F0",
"|#	c #BFC2F0",
"1#	c #C9BBF3",
"2#	c #D6B4F7",
"3#	c #E6CCFA",
"4#	c #E9D0FA",
"5#	c #D4A8F6",
"6#	c #D3ADF6",
"7#	c #D2B0F5",
"8#	c #D3B1F6",
"9#	c #D6B1F6",
"0#	c #D9B1F7",
"a#	c #E8D0FA",
"b#	c #E9D1FA",
"c#	c #EAD2FB",
"                                                                                                                                ",
"                                                                                                                                ",
"                                                                                                                                ",
"                                                                                                                                ",
"                                                                                                                                ",
"                                                                                                                                ",
"                                                                                                                                ",
"                                                                                                                                ",
"                                                                                                                                ",
"                                                                                                                                ",
"                                                                                                                                ",
"                                                                                                                                ",
"                                                                                                                                ",
"                                                                                                                                ",
"                                                                                                                                ",
"                                                                                                                                ",
"                                                                                                                                ",
"                                                                                                                                ",
"                                                                                                                                ",
"                                                                                                                                ",
"                              . . . . . . . . . . . . . . . . .                                                                 ",
"                            . . + @ # $ % & * = - ; > , ' ) ! . .                                                               ",
"                          . . + ~ { ] ^ & / ( - _ : < [ ) } | 1 . .                                                             ",
"                        . . 2 3 @ # $ % / * = 4 ; < , ' 5 ! 1 6 7 . .                                                           ",
"                      . . 8 + @ 9 ] ^ & * ( - _ > 0 [ ) } | a b c d . .                                                         ",
"                    . . 8 2 3 { # ^ e / ( = _ ; < [ f 5 ! 1 b 7 g h i . .                                                       ",
"                  . . j k + @ 9 ] % & * l - ; > , ' ) ! m 6 7 c h n o p . .                                                     ",
"                . . q 8 + ~ { # ^ & / ( = _ : < [ f 5 | 1 b 7 g n i r s t . . . . . . . . . . . . . . . . . . .                 ",
"                . q j 2 3 @ # $ % / * = - ; < , ' ) ! 1 6 7 c h u o p v w x y z A B C D E F G H I J K L M N O .                 ",
"                . P 8 + ~ { ] ^ & Q ( - _ > 0 [ ) } | a b c g n o r s t R y S T U V W X Y Z `  ...+.@.#.N $.%..                 ",
"                . 8 2 3 @ # ^ % / * = 4 ; < , f 5 ! 1 &.7 g h i *.p t =.x S z U B C X E F G H -.J K L M ;.O >..                 ",
"                . k + @ 9 ] % & * ( - ,.> 0 [ ) ! | 6 b c h n o r v w R y '.T B V D X Y G `  .J +.L #.N O %.)..                 ",
"                . 2 ~ { # ^ e / ( = _ : < [ f 5 | 1 b 7 g n i *.p t R x S z U !.C X E Z ~.H -.{.K #.M $.O ].^..                 ",
"                . + @ # ] % & * = - ; > , ' ) ! m 6 7 c h n o p v w x y z T B C D /.Y G H I J +.L M N O %.(._..                 ",
"                . ~ { ] ^ & / ( - _ : < [ ) } | 1 b c g n i r s t R :.S T U !.C X Y Z ~. ...+.K #.N $.%.].^.<..                 ",
"                . @ # $ % / * = - ; < , ' 5 ! 1 6 7 g h i o p t =.x y z U B C D E F G H I J K L M N O >.(._.<..                 ",
"                . 9 ] ^ & * ( [.}.|.1.2.) } | a b c 3.4.5.6.7.w R y S T B V D X Y G `  ...+.L #.N $.%.).^.<.8..                 ",
"                . # ^ e / ( 9.0.a.b.c.d.e.! 1 b 7 f.g.h.i.j.k.=.x S z U B C X E F G H -.{.K #.M $.O >.^.l.m.n..                 ",
"                . ] % & * o.p.q.r.s.t.u.v.w.6 7 c x.y.z.A.B.C.R y z T B V D /.Y G `  .J +.L #.N O %.(.^.<.n.D..                 ",
"                . ^ & / ( E.F.A.G.H.I.J.K.L.M.N.O.P.Q.R.S.T.U.:.S T U !.C X Y Z ~.H ..+.K #.M $.V.].^.l.m.W.X..                 ",
"                . % / * = Y.Z.A.`. +.+++@+#+$+%+&+*+=+-+;+>+,+y z A B C D E Y G H I J K L M N O >.(._.<.n.X.'+.                 ",
"                . & Q )+!+~+{+r.@+]+^+/+(+_+:+<+[+}+|+1+t R y S T U V W X Y Z ~. ...+.@.#.N $.%.].^.<.8.W.X.2+.                 ",
"                . / 3+4+5+6+7+8+K.9+]+0+a+b+f.c+[+A.d+e+f+g+h+i+j+B C X E F G H -.J K L M ;.O >.(.l.m.n.X.k+l+.                 ",
"                . * m+n+9+o+p+q+r+9+s+t+u+c v+w+x+9+y+z+A+B+C+D+E+F+D X Y G `  ...+.L #.N O %.).^.<.n.W.'+2+G+.                 ",
"                . ( H+I+r.J+K+L+M+9+@+N+O+P+Q+r.9+R+S+,+T+U+V+9+W+X+X Y+Z+`+H -.{.K #.M $.O ].^.l.m.n.X.2+ @.@.                 ",
"                . = - +@@@#@$@%@&@@+*@=@-@;@>@A.z.,@'@R )@!@~@A.{@]@^@/@(@_@:@J +.L M N O %.(._.<.n.D.'+l+G+<@.                 ",
"                . - _ : [@q+}@|@1@2@3@4@v+5@9+}+6@7@R 8@9@0@s+9+a@b@c@d@A.e@f@+.K #.N $.V.].^.<.8.W.X.2+G+.@g@.                 ",
"                . - ; < , h@i@j@k@l@b+g m@n@9+o@e+p@x q@r@s@A.t@u@Y+v@w@A.x@y@K L M N O >.(._.<.n.X.'+l+G+<@z@.                 ",
"                . _ > 0 [ ) } | a b c g A@B@@+C@D@f+)@E@s@A.{@F@G@Y H@I@9+J@K@L #.N $.%.).^.<.8.W.'+2+G+.@g@L@.                 ",
"                . ; < [ f 5 ! 1 b 7 g h M@N@O@P@Q@R@S@T@9+s+U@V@E F W@X@Y@Z@`@L M $.O >.^.l.m.n.X.2+ @.@<@z@ #.                 ",
"                . > 0 [ ) ! m 6 7 c h n o .#+#@###$#%#&#s+{@u@/.Y G *#=#-#;#L #.N O %.).^.<.n.D.'+2+G+<@g@L@>#.                 ",
"                . < [ f 5 | 1 b 7 g n i r p t R :.S z ,#'#{@)#!#~#{#]#^#;#K #.M $.V.].^.l.m.W.X.2+ @.@g@z@/#>#.                 ",
"                . , ' ) ! 1 6 7 c h u o p v w x y z T (#_#:#<#[#}#|#1#2#+.L M N O >.(._.<.n.X.'+l+G+<@3#L@>#4#.                 ",
"                . [ ) } | 1 b c g n o r s t R y S T U V 5#G@6#7#8#9#0#+.@.#.N $.%.].^.<.8.W.X.2+G+.@g@z@/#a#b#.                 ",
"                . ' 5 ! 1 &.7 g h i o p t =.x y z U B C X E F G H -.J K L M ;.O >.(.l.m.n.X.k+l+.@<@z@L@>#b#c#.                 ",
"                . . . . . . . . . . . . . . . . . . . . . . . . . . . . . . . . . . . . . . . . . . . . . . . .                 ",
"                                                                                                                                ",
"                                                                                                                                ",
"                                                                                                                                ",
"                                                                                                                                ",
"                                                                                                                                ",
"                                                                                                                                ",
"                                                                                                                                ",
"                                                                                                                                "};
