/* XPM */
static char * siv_logo_xpm[] = {
"64 64 127 2",
"  	c None",
". 	c #FFFFFF",
"+ 	c #FEFFFF",
"@ 	c #E8F8FA",
"# 	c #EBF9FA",
"$ 	c #DDF5F7",
"% 	c #EAF9FA",
"& 	c #F9FDFE",
"* 	c #F7FDFD",
"= 	c #DFF5F8",
"- 	c #ACE6EC",
"; 	c #99E0E8",
"> 	c #A7E4EB",
", 	c #B3E8EE",
"' 	c #D5F2F6",
") 	c #E7F8FA",
"! 	c #D9F4F7",
"~ 	c #C3EDF2",
"{ 	c #C2ECF1",
"] 	c #C4EDF2",
"^ 	c #C3EDF1",
"/ 	c #DBF4F7",
"( 	c #E9F8FA",
"_ 	c #ECF9FB",
": 	c #D3F2F5",
"< 	c #AEE6ED",
"[ 	c #A9E5EC",
"} 	c #FBFEFE",
"| 	c #ADE6ED",
"1 	c #9DE1E9",
"2 	c #9BE1E9",
"3 	c #9BE0E8",
"4 	c #A2E3EA",
"5 	c #BBEAF0",
"6 	c #E6F7F9",
"7 	c #F4FCFC",
"8 	c #BAEAEF",
"9 	c #9BE1E8",
"0 	c #D7F3F6",
"a 	c #ABE6EC",
"b 	c #9FE2E9",
"c 	c #B0E7ED",
"d 	c #BFECF1",
"e 	c #BFEBF0",
"f 	c #D2F1F5",
"g 	c #F3FBFC",
"h 	c #B7E9EF",
"i 	c #F5FCFD",
"j 	c #A8E5EB",
"k 	c #9AE0E8",
"l 	c #CFF0F4",
"m 	c #FDFFFF",
"n 	c #B4E8EE",
"o 	c #E1F6F8",
"p 	c #CCF0F4",
"q 	c #E5F7F9",
"r 	c #B2E8EE",
"s 	c #F4FCFD",
"t 	c #B6E9EE",
"u 	c #A5E4EB",
"v 	c #DCF4F7",
"w 	c #CDF0F4",
"x 	c #9EE1E9",
"y 	c #A3E3EA",
"z 	c #EFFAFB",
"A 	c #FCFEFE",
"B 	c #FDFEFF",
"C 	c #E0F6F8",
"D 	c #B9EAEF",
"E 	c #AFE7ED",
"F 	c #A6E4EB",
"G 	c #D6F3F6",
"H 	c #C8EEF3",
"I 	c #F1FBFC",
"J 	c #AAE5EC",
"K 	c #EEFAFB",
"L 	c #CBEFF3",
"M 	c #C6EEF2",
"N 	c #CCEFF3",
"O 	c #E2F6F8",
"P 	c #F2FBFC",
"Q 	c #E3F7F9",
"R 	c #F0FBFC",
"S 	c #A0E2EA",
"T 	c #FDFEFE",
"U 	c #BDEBF0",
"V 	c #9CE1E9",
"W 	c #C9EEF3",
"X 	c #C2EDF1",
"Y 	c #DAF4F7",
"Z 	c #F8FDFD",
"` 	c #D8F3F6",
" .	c #C5EDF2",
"..	c #D0F1F4",
"+.	c #E2F6F9",
"@.	c #F7FCFD",
"#.	c #A4E3EA",
"$.	c #C1ECF1",
"%.	c #B5E9EE",
"&.	c #E3F6F9",
"*.	c #CAEFF3",
"=.	c #CEF0F4",
"-.	c #F0FAFC",
";.	c #B8E9EF",
">.	c #DEF5F8",
",.	c #B1E7ED",
"'.	c #C0ECF1",
").	c #FAFEFE",
"!.	c #EDF9FB",
"~.	c #F6FCFD",
"{.	c #D4F2F5",
"].	c #D9F3F6",
"^.	c #ADE6EC",
"/.	c #CFF1F4",
"(.	c #9EE2E9",
"_.	c #FAFDFE",
":.	c #A1E2EA",
"<.	c #C7EEF2",
"[.	c #A4E3EB",
"}.	c #D1F1F5",
"|.	c #D5F2F5",
"1.	c #E4F7F9",
"2.	c #BCEBF0",
"3.	c #B5E8EE",
"4.	c #EDFAFB",
"5.	c #ABE5EC",
"6.	c #A1E3EA",
". . . . . . . . . . . . . . . . . . . . . . . . . . . . . . . . . . . . . . . . . . . . . . . . . . . . . . . . . . . . . . . . ",
". . . . . . . . . . . . . . . . . . . . . . . . . . . . . . . . . . . . . . . . . . . . . . . . . . . . . . . . . . . . . . . . ",
". . . . . . . . . . . . . . . . . . . . . . . . . . . . . . . . . . . . . . . . . . . . . . . . . . . . . . . . . . . . . . . . ",
". . . . . . . . . . . . . . . . . . . . . . . . . . . . . . . . . . . . . . . . . . . . . . . . . . . . . . . . . . . . . . . . ",
". . . . . . . . . . . . . . . . . . . . . . . . . . . . . . . . . . . . . . . . . . . . . . . . . . . . . . . . . . . . . . . . ",
". . . . . . . . . . . . . . . . . . . . . . . . . . . . . . . . . . . . . . . . . . . . . . . . . . . . . . . . . . . . . . . . ",
". . . . . . . . . . . . . . . . . . . . . . . . . . . . . . . . . . . . . . . . . . . . . . . . . . . . . . . . . . . . . . . . ",
". . . . . . . . . . . . . . . . . . . . . . . . . . . . . . . . . . . . . . . . . . . . . . . . . . . . . . . . . . . . . . . . ",
". . . . . . . . . . . . . . . . . . . . . . . . . . . . . . . . . . . . . . . . . . . . . . . . . . . . . . . . . . . . . . . . ",
". . . . . . . . . . . . . . . . . . . . . . . . . . . . . . . . . . . . . . . . . . . . . . . . . . . . . . . . . . . . . . . . ",
". . . . . . . . . . . . . . . . . . . . . . . . . . . . . . . . . . . . . . . . . . . . . . . . . . . . . . . . . . . . . . . . ",
". . . . . . . . . . . . . . . . . . . . . . . . . . . . . . . . . . . . . . . . . . . . . . . . . . . . . . . . . . . . . . . . ",
". . . . . . . . . . . . . . . . . . . . . . . . . . . . . . . . . . . . . . . . . . . . . . . . . . . . . . . . . . . . . . . . ",
". . . . . . . . . . . . . . . . . . . . . . . . . . . . . . . . . . . . . . . + . . . . . . . . . . . . . . . . . . . . . . . . ",
". . . . . . . . . . . . . . . . . . . . . . . . . . . . . . . . . . . . . . @ # $ % . . . . . . . . . . . . . . . . . . . . . . ",
". . . . . . . . . . . . + . & * . . . . . . . . . . . . . . . . . . . . * = - ; > , ' & . . . . . . . . . . . . . . . . . . . . ",
". . . . . . . . . . . ) ! ~ { ] ^ / ( _ & . . . . . . . . . . . . . . . : < ; ; ; ; [ = . . . . . . . . . . . . . . . . . . . . ",
". . . . . . . . . } ( | 1 2 ; ; 1 3 4 5 ' 6 7 . . . . . . . . . . . . & 8 3 ; ; ; ; 9 ^ & . . . . . . . . . . . . . . . . . . . ",
". . . . . . . . . 0 a ; ; ; ; ; b c d e 3 c f & . . . . . . . . . . . g d ; ; ; ; ; ; h i . . . . . . . . . . . . . . . . . . . ",
". . . . . . . . . j k ; ; ; ; | l * i * ; ; ; a $ m . . . . . . . . . . ~ 1 ; ; ; ; ; n . . . . . . . . . . . . . . . . . . . . ",
". . . . . . . . o k ; ; ; ; ; p g . . q a ; ; 3 r s . . . . . . . . . . # t ; ; ; ; u v . . . . . . . . . . . . . . . . . . . . ",
". . . . . . . . w x ; ; ; ; y ' . . . z [ ; ; ; ; 5 g + A i . . B . . . } C D E F E G . . . . . . . . . . . . . . . . . . . . . ",
". . . . . . . B v ; ; ; ; ; ; H & . . I < ; ; ; ; J K ( L M d N O q P . . . i Q R I } . . . . . . . . . . . . . . . . . . . . . ",
". . . . . . . . @ a ; ; ; ; ; E @ . . . w S ; ; k - T f U > V 9 ; E W _ . . . . . . . . . . . . . . . . . . . . . . . . . . . . ",
". . . . . . . . . X 1 ; ; ; ; 9 J Y Z . ( , ; S J ` . } # O  .1 ; ; ; j = m . . . . . . . . . . . . . . . . . . . . . . . . . . ",
". . . . } * . . . @ r ; ; ; ; ; ; E $ . . . 6 ..P A . . . . O J ; ; ; 3 8 . . . . . . . . . . . . . . . . . . . . . . . . . . . ",
". . m i p  .L % . } / u ; ; ; ; ; ; [ +.A . . . + . . . . . @.u ; ; ; ; j C . . . . . . . . . . . . . . . . . . . . . . . . . . ",
". . q 8 1 ; #.$.. . . q %.k ; ; ; ; ; , ( . . . . . . . . g : ; ; ; ; ; ; &.m . . Z . & Z . . . . . . . . . . . . . . . . . . . ",
". . w 4 ; ; ; 1 *.} . } = u ; ; ; ; ; b p . . . . . . . . $ - ; ; ; ; ; [ ) . . . l r { *.=.o . . . . . . . . . . . . . . . . . ",
". A Y ; ; ; ; ; ^ i . . . $ u ; ; ; ; ; c P . . . . . . K 8 ; ; ; ; ; ; ] -.. . P ;.n F ; 4 2 F w @.. . . . . . . . . . . . . . ",
". . >.> ; ; ; ; ,.} . . . i n ; ; ; ; ; [ I . . . . . Z '.x ; ; ; ; ; S ( B . . . . # w F ; ; ; 9 5 i . . . . . . . . . . . . . ",
". . A W S ; ; ; U 7 . . . i r ; ; ; ; ; < 6 . . . . Z 0 ; ; ; ; ; ; F =.+ . . . . . . . N b ; ; ; V =.).. . . . . . . . . . . . ",
". . + !.5 ; ; ; 5 ~.. . + {.[ ; ; ; ; 2 5 & . . . . ].< ; ; ; ; ; ;  .i . . . . . . . * =.; ; ; ; ; %.R . . . . A m & m . . . . ",
". . . . . 0 < k c P g ( = u 3 ; ; ; ; ^.{.. . . + s [ V ; ; ; ; 3 h @ . . . . . . . . @ ;.; ; ; ; ; > + . . . # l U p >.I . . . ",
". . . . . } ) /.%.9 ,.- (.; ; ; ; ; b ` i . . . !. .; ; ; ; ; ; > ) } . . . . . . . & 8 V ; ; ; ; ; U P . . z ,.; k ; S *._.. . ",
". . . . . . . i ( Y '.[ ; y 2 1 F , 0 . . . . . =.u ; ; ; ; ; [ =.. . . . . . . . @./.:.; ; ; ; ; ; ` Z . . <.; ; ; ; ; [.z . . ",
". . . . . . . . . } I * q {.Y 0 # i } . . . . # n ; ; ; ; ; ; f g . . . . . . . . 0 #.; ; ; ; ; ; h Z . . + > ; ; ; ; ; 1 *.. . ",
". . . . . . . . . . . . . . T . . . . . . . . ` > ; ; ; ; V E . . . . . . . . A $ a ; ; ; ; ; ; c q . . . !., ; ; ; ; ; ; }._.. ",
". . . . . . . . . . . . . . . . . . . . . . A / k ; ; ; ; | / . . . . . . . . ) < 9 ; ; ; ; ; > ' . . . . } U 3 ; ; ; ; :.L . . ",
". . . . . . . . . . . . . . . . . . . . . . B $ S ; ; ; k E Z . . . . . . . K X ; ; ; ; ; ; :.f i . . . . B |.9 ; ; ; ; < C . . ",
". . . . . . . . . . . . . . . . . . . . . . . Z 5 1 ; ; ; ^.1._.. . . . . . }.> ; ; ; ; ; S ^ . . . . . . . K n ; ; ; V 5 ).. . ",
". . . . . . . . . . . . . . . . . . . . . . . . % 5 ; ; ; (.D 0 Q 7 . . . @.U ; ; ; ; ; ; ] !.. . . . . . . . l S ; ; E ' . . . ",
". . . . . . . . . . . . . . . . . . . . . . . . B R 0 U u 2 y ; E ) ).. . K ;.; ; ; ; ; ; g + . . . . . . . * /.; ; ; ' @.. . . ",
". . . . . . . . . . . . . . . . . . . . . . . . . . _.!.P Q : ].! . . . . * E ; ; ; ; ; d . . . . . . . . . % D ; ; %.I . . . . ",
". . . . . . . . . . . . . . . . . . . . . . . . . . . . . . . A B . . . . i 2.; ; ; ; ; = m . . . . . . . } / b ; ,.q . . . . . ",
". . . . . . . . . . . . . . . . . . . . . . . . . . . . . . . . . . . . . } ..:.; ; ; b =.. . . . . . . . $ E 9 < q . . . . . . ",
". . . . . . . . . . . . . . . . . . . . . . . . . . . . . . . . . . . . . . . $.x ; ; ; 3.# . . . . . . 1.E V 3.>.A . . . . . . ",
". . . . . . . . . . . . . . . . . . . . . . . . . . . . . . . . . . . . . . + q , ; ; ; S  .o % * P ) : a y h 4.. . . . . . . . ",
". . . . . . . . . . . . . . . . . . . . . . . . . . . . . . . . . . . . . . . . & f c ; ; ; F D E , 5.x ;.].I . . . . . . . . . ",
". . . . . . . . . . . . . . . . . . . . . . . . . . . . . . . . . . . . . . . . . 7 6 |.e y F - 6., $.= g . . . . . . . . . . . ",
". . . . . . . . . . . . . . . . . . . . . . . . . . . . . . . . . . . . . . . . . . . & g . 6 ( I z } A . . . . . . . . . . . . ",
". . . . . . . . . . . . . . . . . . . . . . . . . . . . . . . . . . . . . . . . . . . . . . . . . . . . . . . . . . . . . . . . ",
". . . . . . . . . . . . . . . . . . . . . . . . . . . . . . . . . . . . . . . . . . . . . . . . . . . . . . . . . . . . . . . . ",
". . . . . . . . . . . . . . . . . . . . . . . . . . . . . . . . . . . . . . . . . . . . . . . . . . . . . . . . . . . . . . . . ",
". . . . . . . . . . . . . . . . . . . . . . . . . . . . . . . . . . . . . . . . . . . . . . . . . . . . . . . . . . . . . . . . ",
". . . . . . . . . . . . . . . . . . . . . . . . . . . . . . . . . . . . . . . . . . . . . . . . . . . . . . . . . . . . . . . . ",
". . . . . . . . . . . . . . . . . . . . . . . . . . . . . . . . . . . . . . . . . . . . . . . . . . . . . . . . . . . . . . . . ",
". . . . . . . . . . . . . . . . . . . . . . . . . . . . . . . . . . . . . . . . . . . . . . . . . . . . . . . . . . . . . . . . ",
". . . . . . . . . . . . . . . . . . . . . . . . . . . . . . . . . . . . . . . . . . . . . . . . . . . . . . . . . . . . . . . . ",
". . . . . . . . . . . . . . . . . . . . . . . . . . . . . . . . . . . . . . . . . . . . . . . . . . . . . . . . . . . . . . . . ",
". . . . . . . . . . . . . . . . . . . . . . . . . . . . . . . . . . . . . . . . . . . . . . . . . . . . . . . . . . . . . . . . ",
". . . . . . . . . . . . . . . . . . . . . . . . . . . . . . . . . . . . . . . . . . . . . . . . . . . . . . . . . . . . . . . . ",
". . . . . . . . . . . . . . . . . . . . . . . . . . . . . . . . . . . . . . . . . . . . . . . . . . . . . . . . . . . . . . . . ",
". . . . . . . . . . . . . . . . . . . . . . . . . . . . . . . . . . . . . . . . . . . . . . . . . . . . . . . . . . . . . . . . "};
